<?xml version="1.0" encoding="utf-8"?>
<!-- Generator: Adobe Illustrator 25.4.1, SVG Export Plug-In . SVG Version: 6.00 Build 0)  -->
<svg version="1.1" id="Capa_1" xmlns="http://www.w3.org/2000/svg" xmlns:xlink="http://www.w3.org/1999/xlink" x="0px" y="0px"
	 viewBox="0 0 93.2 109.8" style="enable-background:new 0 0 93.2 109.8;" xml:space="preserve">
<style type="text/css">
	.st0{display:none;}
	.st1{display:inline;}
	.st2{fill:#FFE15A;}
	.st3{fill:#41479B;}
	.st4{fill:#FF4B55;}
	.st5{display:inline;fill:none;}
	.st6{display:inline;fill:#FFE15A;}
	.st7{display:inline;fill:#213DA3;}
	.st8{display:inline;fill:#FF4B55;}
	.st9{fill:#213DA3;stroke:#213DA3;stroke-miterlimit:10;}
	.st10{fill:url(#SVGID_1_);stroke:url(#SVGID_00000040552543562510464980000003378073624819531197_);stroke-miterlimit:10;}
	.st11{fill:#FF4B55;stroke:#FF4B55;stroke-miterlimit:10;}
	.st12{display:inline;fill:#06153F;stroke:#06153F;stroke-width:2;stroke-miterlimit:10;}
</style>
<g id="Capa_1_00000178920922637832887980000011410958665761470894_" class="st0">
	<g class="st1">
		<path d="M62.2,361c-0.7,7.7-5,11.4-9.7,11c-3.1-0.3-28.3-25.9-66.9-26.3c-6.5,9-13.4,12.4-19.3,12.4c-10,0-12.8-5.6-12.8-9.2
			c0-2.1,1.1-5.8,6.9-8.9c1.6-1.1,3.7-1.9,6.6-2.4c1.7-0.5,3.6-0.9,5.7-1.2c1.2-3.9,2.4-8.5,3.3-13.9c3.9-21.7,4.8-85.1,6.4-94.6
			c1.7-9.4,21.8-13.8,19.7-1.7c-1.3,7.3-1.5,66.4-6.2,93.8c-1.1,5.8-2.7,11-4.6,15.5C23.3,334.8,63.6,345.8,62.2,361z M-28.6,344.1
			c-12.2,0-13.8,10.4-9,10.4C-32.7,354.4-28.6,344.1-28.6,344.1z"/>
		<path d="M29.1,248.5c9.7,0,23.1-1.2,23.1,8.9c0,10-12.8,22.6-15,22.6c-2.4,0,3.2-18.7,1.1-18.7c-10.2,0-19.5,25.9-11.7,25.9
			c3.5,0,23.8-0.3,23.8,11.4c0,11.8-21.4,30.8-29.2,30.8s-12.9-6.9-9.4-6.9c6.4,0,24.7-19.7,24.7-24.4c0,0-28.6,4.4-28.6-17.1
			C7.8,269.3,19.5,248.5,29.1,248.5z"/>
		<path d="M58.2,286.1c0-14.5,7.3-27.4,11.4-31.3c4-4.1,14.9-5,17.8-2.1c2.8,2.8,8.6,17.9,4.5,17.9s-5.6-11.7-8-11.7
			c-8.9,0-12.8,53.1-0.5,53.1c14.6,0,19.3-24.8,20.7-27.4c1.5-2.5,5.4-2.9,4,0s-9,37.3-28.2,37.3C66.7,321.9,58.2,304.1,58.2,286.1z
			"/>
	</g>
	
		<text transform="matrix(1 0 0 1 540.9744 -220.8037)" class="st1" style="font-family:'BeyondTheMountains'; font-size:132.8252px;">Lsc</text>
	<g class="st1">
		<rect x="-521.6" y="-572.7" class="st2" width="391.4" height="218.6"/>
		<rect x="-521.6" y="-354.5" class="st3" width="391.4" height="101.2"/>
		<rect x="-521.6" y="-253.7" class="st4" width="391.4" height="101.2"/>
	</g>
	<path class="st5" d="M-165.9,134.2V-41.3c0-10.7-5.7-20.6-15-26l-152-87.7c-9.3-5.4-20.7-5.4-30,0l-152,87.7
		c-9.3,5.4-15,15.3-15,26v175.5c0,10.7,5.7,20.6,15,26l152,87.7c9.3,5.4,20.7,5.4,30,0l152-87.7
		C-171.6,154.8-165.9,144.9-165.9,134.2z"/>
	
		<text transform="matrix(1 0 0 1 173.0555 330.9302)" style="display:inline;fill:#06153F; font-family:'Chesta'; font-size:137.9377px;">lsc</text>
	<rect x="-88.9" y="-12.6" class="st6" width="43" height="43"/>
	<rect x="-88.9" y="42.4" class="st7" width="43" height="43"/>
	<rect x="-83.9" y="91.4" class="st8" width="43" height="43"/>
</g>
<g id="Capa_2_00000052805333896744387270000005348135805002308484_">
	<g>
		<path class="st9" d="M90.9,77.8c-0.1-1.7-0.3-3.4-0.7-5.1c-2-8.3-7.6-14.1-16.6-17.4c-3.9-1.4-7.9-1.9-11.8-1.5
			c-2,0.1-6,0.8-8.6,2.3c-3.3,1.7-5.2,4-5.6,6.6c-0.4,2.7,0.8,5.5,3.4,8.1c4.2,4.2,9.4,6.4,13.5,7.9c2.5,0.9,4.9,0,6-2.4
			c1-2.4,0.1-4.8-2.3-5.8L66.9,70c-2.1-0.9-4.2-1.8-6.2-2.8c-0.9-0.4-1.8-1.1-2.7-2.1c-0.3-0.3-0.5-0.6-0.4-0.9
			c0-0.3,0.3-0.5,0.7-0.8c0.8-0.5,1.6-0.7,2.3-0.8c6.3-0.7,11.6,0.9,15.7,4.6c3.1,2.9,4.8,6.8,4.8,11v0.9L82,79
			c2.8-0.3,5.5-0.4,8.2-0.5H91L90.9,77.8z"/>
		<path class="st9" d="M33.2,89.6c-0.4-0.3-0.8-0.6-1.2-0.9l0,0c-7.4-5.9-13.5-13.4-18-22.3l-0.4-0.7L13.2,66
			c-2.5,0.3-5,0.6-7.3,0.7l-1.1-0.1l0.4,1.2c3.9,10.2,9.6,18.8,17,25.5l0.3,0.3l0.4-0.1c3.1-0.7,6.4-1.4,10.2-2.4l1.6-0.4L33.2,89.6
			z"/>
		<path class="st3" d="M31.9,63L31.9,63c-3.6,0.8-7.1,1.7-10.7,2.4l0.1,0.1C24.8,64.8,28.3,64,31.9,63z"/>
		<path class="st3" d="M13.3,66.8c0,0,0-0.1-0.1-0.1c-2.5,0.3-4.9,0.5-7.4,0.7v0.1C8.4,67.4,10.9,67.1,13.3,66.8z"/>
		
			<linearGradient id="SVGID_1_" gradientUnits="userSpaceOnUse" x1="15.0514" y1="100.6323" x2="53.1043" y2="48.5131" gradientTransform="matrix(1 0 0 -1 0 112)">
			<stop  offset="0" style="stop-color:#FFE15A"/>
			<stop  offset="0.9502" style="stop-color:#FFCB5A"/>
		</linearGradient>
		
			<linearGradient id="SVGID_00000045580381412653173990000001898525471050633884_" gradientUnits="userSpaceOnUse" x1="17.0034" y1="97.901" x2="57.763" y2="42.0744" gradientTransform="matrix(1 0 0 -1 0 112)">
			<stop  offset="0" style="stop-color:#FFE15A"/>
			<stop  offset="0.9502" style="stop-color:#FFCB5A"/>
		</linearGradient>
		
			<path style="fill:url(#SVGID_1_);stroke:url(#SVGID_00000045580381412653173990000001898525471050633884_);stroke-miterlimit:10;" d="
			M79.6,51L79,51.1l0.6-0.2l-0.2-1.5c-0.2-1.4-0.5-2.8-0.8-4.2C76,32.1,72.7,22.5,68,14.1c-1.4-2.6-3.4-5.3-5.9-8.1
			c-1.1-1.3-2.9-2.4-5-3.2c-1.7-0.6-3.2-0.6-4.4,0c-1.3,0.6-2.3,1.9-2.9,3.8c-1.2,3.7-0.9,7.5-0.4,10.7s1.1,6.5,1.7,9.6
			c0.1,0.6,0.2,1.1,0.3,1.7c-0.6-1.1-1.2-2.1-1.8-3.2c-2-3.6-4.1-7.3-6.4-10.8c-1.6-2.5-4-4.5-6-6.3c-1.9-1.7-4.4-2.3-6.9-1.9
			c-3.6,0.6-5.7,2.8-6.1,6.4c-0.4,3.6,0.2,7.5,1.8,11.5c1.7,4.1,3.5,8.2,5.3,12.2c0.3,0.8,0.7,1.6,1,2.3c-0.4-0.4-0.7-0.8-1.1-1.2
			c-2.3-2.5-4.7-5.1-7.2-7.5c-2.2-2.2-4.7-3.4-7.4-3.8c-2.1-0.3-4,0.2-5.3,1.4c-1.3,1.2-2.1,3-2,5c0,3,0.8,6.1,2.5,9.3
			c1.8,3.5,3.8,6.9,5.7,10.3c0.4,0.8,0.9,1.5,1.3,2.3c-0.2-0.2-0.4-0.4-0.7-0.6c-1.5-1.2-3-2.5-4.6-3.7c-1.1-0.8-2.5-1.5-3.9-1.9
			c-1.9-0.6-3.8-0.5-5.1,0.4s-2,2.3-2.2,4.2c-0.2,3,0,5.9,0.7,8.3c0.6,2.2,1.3,4.4,2.1,6.5l0.2,0.5h0.6c2.4-0.1,4.9-0.3,7.4-0.7
			l1.1-0.1l-0.5-1c-0.9-1.8-1.7-3.6-2.5-5.4c-0.3-0.8-0.5-1.7-0.8-2.6v-0.1c0.5,0.3,1,0.6,1.4,0.9c1.1,0.9,2.2,1.8,3.3,2.7
			c1.7,1.4,3.5,2.8,5.2,4.2l0.3,0.2l0,0l0,0l0,0c1.6,1.2,3.5,2.1,4.9,2.8c1.1,0.5,2.4,0.7,3.3,0.7c0,0,0,0,0.1,0
			c1.3,0,2.4-0.4,3.1-1.3c0.7-0.8,1-1.9,0.8-3.1c-0.1-0.7-0.2-1.3-0.4-1.9l0,0l-0.2-0.8c-0.3-1-0.6-1.9-1-2.7
			c-2.1-3.9-4.3-7.7-6.5-11.5l-1.2-2C23,45,22,43.5,21.1,41.9c-0.8-1.2-1.5-2.5-2.3-3.7c-0.4-0.6-0.7-1.3-0.9-2
			c-0.1-0.2,0-0.5,0-0.8c0.2,0.1,0.4,0.1,0.6,0.2c0.8,0.6,1.6,1.4,2.4,2.3c1.3,1.5,2.7,3.1,4,4.6c2.3,2.7,4.6,5.4,7,8.1
			c1.2,1.3,2.5,2.4,3.9,3.5c0.4,0.3,0.8,0.7,1.2,1c0.6,0.5,1.3,0.8,1.9,1.1c2,0.9,3.9,0.9,5.3-0.1c1.3-1,1.9-2.7,1.6-4.9
			c-0.4-2.9-0.9-5.2-1.7-7.2c-1.7-4.2-3.5-8.4-5.3-12.5c-1.2-2.9-2.5-5.7-3.7-8.6c-0.9-2.2-1.7-4.6-2.4-6.8c0-0.1,0.1-0.4,0.2-0.7
			c0.2,0,0.6,0.1,0.7,0.1c1,1.1,2.2,2.3,3,3.6c1.7,2.9,3.3,5.9,4.9,8.9c1.7,3.1,3.5,6.3,5.2,9.5c1.7,3,3.7,5.9,5.4,8.4
			c0.8,1.1,1.8,2.1,3.1,3c1.4,1,2.8,1.3,4,0.8c1.1-0.5,1.9-1.6,2.1-3.2c0.4-2.8,0.4-5.3,0.1-7.5c-0.7-4.5-1.5-9.1-2.3-13.5
			c-0.4-2-0.7-4-1.1-6c-0.4-2.1-0.7-4.3-1-6.5c0-0.3,0-0.7,0-1.1l0.1,0.1c0.6,0.5,1.1,1,1.4,1.6l0.4,0.8c1.6,3.1,3.2,6.4,4.4,9.6
			c2.8,7.4,4.7,15.3,5.9,23.5c0.2,1.4,0.8,2.1,2.3,2.4c1.7,0.3,3.4,0.8,5.1,1.4l3.4,1L79.6,51z"/>
		<path class="st11" d="M90.9,77.1h-0.8c-2.7,0-5.5,0.2-8.3,0.5l-0.7,0.1v0.7c-0.1,2.7-0.8,5.4-2.3,7.8c-3.2,5.6-8.3,9-15.6,10.4
			c-10.7,2.1-20.8-0.2-29.8-6.9l-0.3-0.2l-0.4,0.1c-3.7,1-7,1.8-10.1,2.4l-1.5,0.3l1.2,1c3.7,3.3,7.9,6.3,12.5,8.7
			c6.7,3.6,13.6,5.4,20.6,5.4c6.3,0,12.8-1.4,19.3-4.3c10-4.4,16.6-14.6,16.3-25.3L90.9,77.1z"/>
		<path class="st4" d="M32.8,90.3c-3.4,0.9-6.8,1.7-10.1,2.4l0.1,0.1c3.4-0.7,6.8-1.5,10.1-2.4C32.9,90.4,32.9,90.3,32.8,90.3z"/>
		<path class="st4" d="M81.9,78.3L81.9,78.3c2.8-0.2,5.5-0.4,8.3-0.4v-0.1C87.4,77.8,84.6,78,81.9,78.3z"/>
	</g>
	<g class="st0">
		<path class="st12" d="M81.6,1.3c1.9-0.3,3.6,0,5.1,0.9c1.4,0.9,2.6,2,3.4,3.4c3.4,5.7,4.9,13.6,4.6,23.6c0,10.1-2.2,19.9-6.5,29.4
			C84,67.7,77,73.6,67.3,76.1c0.2,6.9,0.8,12.8,2,17.6c0.8,3.3,1.7,5.6,2.8,7.1c0.4,0.7,0.8,1.1,1.1,1.2c0.3,0.2,0.5,0.2,0.8,0.2
			c1.6,0,3.5-0.9,5.8-2.8c2.3-2,4.5-4.6,6.6-7.9c2.2-3.3,4.2-7,6-11s3.1-7.3,3.8-9.9c0.9-1.8,2-2.7,3.5-2.7c0.2,0,0.3,0,0.5,0
			c0.1,0,0.3,0.1,0.5,0.1c1.8,0.8,2.7,2,2.7,3.5c0,0.2,0,0.3,0,0.5s-0.1,0.3-0.1,0.5c-1.7,6.6-5.3,14.2-10.7,23
			c-2.3,3.7-5,6.9-8,9.6c-3.1,3-6.6,4.4-10.5,4.4c-3.3,0-6-1.5-7.9-4.6c-1.7-2.6-3-5.7-3.8-9.5c-1.8-7.7-2.6-17-2.4-27.8
			c0.2-10.8,1.4-21.6,3.6-32.2c2.2-10.7,5.4-19.6,9.8-26.8C75.4,4.5,78.2,2.1,81.6,1.3z M82.9,8.5c-0.1,0-0.5,0.2-1.1,0.8
			c-0.7,0.6-1.5,1.6-2.6,3.2c-3.6,6-6.5,14.1-8.6,24.3s-3.3,20.6-3.6,31c0,0.1,0,0.3,0,0.5c0,0.1,0.1,0.3,0.1,0.4
			c6.4-1.9,11.3-6.3,14.5-13.3c3.8-8.2,5.7-16.9,5.8-26.3c0-4.5-0.3-8.5-1-12s-1.5-6-2.5-7.5C83.5,9,83.2,8.6,82.9,8.5L82.9,8.5
			C83,8.4,83,8.4,82.9,8.5C83,8.5,83,8.5,82.9,8.5z"/>
		<path class="st12" d="M93.4,60.5c1-8.5,4-14.3,8.9-17.4c2.4-1.6,4.9-2.5,7.5-2.8c2.6-0.2,5,0.1,7.4,0.9c5,1.9,7.9,5.5,8.8,10.8
			c0.4,5.4-2.9,10.7-9.8,15.9c-0.2,0.1-0.4,0.3-0.8,0.4c-0.4,0.2-0.8,0.2-1.3,0.2c-0.9,0-1.8-0.5-2.7-1.4c-0.2-0.1-0.3-0.4-0.4-0.7
			c-0.1-0.4-0.2-0.8-0.2-1.3c0-0.9,0.4-1.9,1.3-2.8c2.9-2.1,4.8-4,5.8-5.7s1.4-3.1,1.3-4.1c-0.2-2.2-1.7-3.8-4.3-4.9
			c-2.9-1.1-5.8-0.7-8.8,1c-3,1.6-5,5.7-5.9,12.3c0.3,4.4,3.3,9.8,9,16.2c2.5,2.9,5.1,6,7.6,9.4c5.5-4.7,12.8-10,21.9-16.1
			c0.4-0.2,0.8-0.4,1.1-0.4c0.3-0.1,0.5-0.1,0.7-0.1c0.8,0,1.4,0.2,1.9,0.5s0.8,0.7,0.9,1c0.3,0.4,0.4,0.8,0.5,1.1
			c0.1,0.3,0.1,0.5,0.1,0.8c0,0.7-0.2,1.3-0.5,1.8s-0.7,0.9-1,0.9c-9.4,6.3-16.8,11.8-22.2,16.4c0.4,0.5,0.7,1,1,1.5
			c1.3,2.1,2.5,4.3,3.5,6.8c1,3.2,0.8,6.2-0.7,8.8c-1.5,2.4-3.5,4.2-5.9,5.5c-5,2.9-10,3.3-14.8,1.1c-1.2-0.7-2.1-1.7-2.8-3
			c-0.7-1.3-1-2.7-0.9-4.2c0.2-2.9,1.6-6,4.2-9.5c1.6-2,3.7-4.2,6.4-6.7c0.6-0.5,1.1-1,1.7-1.5c-2.5-3.4-5.1-6.6-7.8-9.8
			c-0.1-0.1-0.2-0.2-0.3-0.3c-2.8-3.1-5.2-6.4-7.3-9.7s-3.1-6.9-3.1-10.7L93.4,60.5L93.4,60.5z M115.3,97.5c-0.7,0.7-1.4,1.3-2.1,2
			c-1.8,1.6-3.1,2.9-4,4c-2,3-3,5-2.9,5.9v0.3c0,0.1-0.1,0.2,0,0.3l0.1,0.1l0.1,0.1c0,0,0.1,0,0.2,0.1c0.6,0.3,1.7,0.4,3.3,0.3
			c1.6-0.1,3.3-0.6,4.9-1.3c1.5-0.9,2.6-1.8,3.2-2.8c0.2-0.5,0.4-1,0.4-1.5c0.1-0.5,0-1.1-0.2-1.8c-0.6-1.3-1.3-2.6-2-3.8
			C116,98.6,115.6,98,115.3,97.5z"/>
		<path class="st12" d="M156.6,54.4c2.1,0,4,0.5,5.7,1.4c2.2,1.2,3.9,2.6,5.3,4.3c1.4,1.7,2.7,3.8,4,6.4c0.2,0.5,0.3,1,0.3,1.5
			c0,1.5-0.7,2.6-2.2,3.2c-0.5,0.2-1,0.3-1.5,0.3c-1.5,0-2.6-0.7-3.2-2.1c-0.7-1.2-1.3-2.2-1.9-3.1c-0.6-0.8-1.2-1.6-2-2.5
			c-0.7-0.8-1.5-1.4-2.3-1.9c-0.8-0.4-1.5-0.6-2.2-0.7c-0.7,0-1.6,0.3-2.7,0.9c-2.3,1.1-5.3,5.3-9,12.5c-1.2,2.6-1.8,5.7-1.8,9.6
			c0,3.8,0.7,7.5,2.2,11.2c1.4,3.6,3.6,6.5,6.6,8.9c2.9,2.3,6.9,3.5,12,3.5c4.8,0,9.1-1.8,13.1-5.5c4.1-3.7,11.9-14.7,23.4-32.9
			c0.8-1.7,1.9-2.6,3.4-2.6c0.3,0,0.5,0,0.7,0.1c0.2,0,0.3,0.1,0.4,0.1c1.7,0.8,2.5,1.9,2.5,3.4c0,0.3,0,0.5,0,0.7s-0.1,0.3-0.1,0.4
			c-12.2,19.7-20.7,31.8-25.6,36.2c-2.5,2.1-5.2,3.8-8.2,5.2c-3,1.4-6.2,2.1-9.6,2.1c-6.4,0-11.7-1.6-15.9-4.9s-7.3-7.2-9.2-11.9
			c-3.7-9.7-3.8-18.5-0.3-26.5c3.8-8,7.7-13.2,11.8-15.5C152.4,55,154.5,54.4,156.6,54.4z"/>
	</g>
</g>
</svg>
